<svg width="20" height="20" viewBox="0 0 20 20" fill="none" xmlns="http://www.w3.org/2000/svg">
<path d="M9.99836 7C8.34387 7 7 8.34387 7 9.99836C7 11.6529 8.34387 13 9.99836 13C11.6529 13 13 11.6529 13 9.99836C13 8.34387 11.6529 7 9.99836 7Z" fill="white"/>
<path d="M14.9824 1H5.0176C2.8036 1 1 2.8036 1 5.0176V14.9824C1 17.2 2.8036 19 5.0176 19H14.9824C17.2 19 19 17.2 19 14.9824V5.0176C19 2.8036 17.2 1 14.9824 1ZM10 15.832C6.7852 15.832 4.168 13.2148 4.168 10C4.168 6.7852 6.7852 4.1716 10 4.1716C13.2148 4.1716 15.832 6.7852 15.832 10C15.832 13.2148 13.2148 15.832 10 15.832ZM15.9544 5.23C15.274 5.23 14.7196 4.6792 14.7196 3.9988C14.7196 3.3184 15.274 2.764 15.9544 2.764C16.6348 2.764 17.1892 3.3184 17.1892 3.9988C17.1892 4.6792 16.6348 5.23 15.9544 5.23Z" fill="white"/>
</svg>
