<svg width="20" height="20" viewBox="0 0 20 20" fill="none" xmlns="http://www.w3.org/2000/svg">
<path fill-rule="evenodd" clip-rule="evenodd" d="M20 10C20 15.5228 15.5228 20 10 20C4.47715 20 0 15.5228 0 10C0 4.47715 4.47715 0 10 0C15.5228 0 20 4.47715 20 10ZM4.21638 10.4007L6.65688 11.1959C6.69802 11.2031 6.74025 11.2005 6.78022 11.1884L6.78185 11.1874C7.34516 10.8316 12.3658 7.66113 12.6557 7.55448C12.7014 7.54065 12.7354 7.55623 12.7264 7.58781C12.6101 7.99548 8.2413 11.8788 8.2413 11.8788C8.2413 11.8788 8.1988 11.9272 8.20655 11.9663C8.20833 11.9813 8.21331 11.9958 8.22116 12.0087C8.22901 12.0217 8.23954 12.0328 8.25205 12.0413C8.80647 12.4121 11.3155 14.0983 12.0414 14.7227C12.1066 14.7861 12.184 14.8356 12.2688 14.8685C12.3537 14.9013 12.4442 14.9167 12.5351 14.9137C12.905 14.8998 13.0083 14.4935 13.0083 14.4935C13.0083 14.4935 14.734 7.54948 14.7916 6.61906C14.7939 6.5838 14.7964 6.55348 14.7986 6.52593C14.8022 6.48232 14.8053 6.44563 14.8057 6.40723C14.8087 6.33479 14.8016 6.26229 14.7845 6.19181C14.7759 6.15191 14.7568 6.11503 14.7292 6.08495C14.7016 6.05486 14.6665 6.03264 14.6275 6.02056C14.4698 5.96065 14.2025 6.05073 14.2025 6.05073C14.2025 6.05073 4.73438 9.45381 4.19363 9.83073C4.07697 9.91165 4.03797 9.95873 4.01863 10.0141C3.92472 10.2824 4.21638 10.4007 4.21638 10.4007Z" fill="url(#paint0_linear_1_467)"/>
<defs>
<linearGradient id="paint0_linear_1_467" x1="10" y1="20" x2="10" y2="0" gradientUnits="userSpaceOnUse">
<stop stop-color="white"/>
<stop offset="1" stop-color="white"/>
</linearGradient>
</defs>
</svg>
